<?xml version="1.0" encoding="UTF-8" standalone="no"?>
<svg
   xmlns:dc="http://purl.org/dc/elements/1.1/"
   xmlns:cc="http://creativecommons.org/ns#"
   xmlns:rdf="http://www.w3.org/1999/02/22-rdf-syntax-ns#"
   xmlns:svg="http://www.w3.org/2000/svg"
   xmlns="http://www.w3.org/2000/svg"
   id="svg4"
   xml:space="preserve"
   style="enable-background:new 0 0 100 100;"
   viewBox="0 0 100 100"
   y="0px"
   x="0px"
   version="1.1"
   fill="#000000"
   height="200"
   width="200"><metadata
     id="metadata10"><rdf:RDF><cc:Work
         rdf:about=""><dc:format>image/svg+xml</dc:format><dc:type
           rdf:resource="http://purl.org/dc/dcmitype/StillImage" /><dc:title></dc:title></cc:Work></rdf:RDF></metadata><defs
     id="defs8" /><path
     style="stroke-width:1.38461542"
     id="path2"
     d="m 83.319427,11.874707 c -0.83077,-0.692308 -1.938462,-0.830769 -2.907693,-0.692308 l -7.2,1.8 c -7.338462,1.8 -15.092307,1.384616 -22.292308,-1.246154 H 50.780964 C 43.027119,8.8285528 34.580964,8.2747066 26.550196,9.7977836 L 23.780965,10.35163 V 9.5208605 c 0,-1.9384615 -1.523077,-3.4615385 -3.461539,-3.4615385 -1.938462,0 -3.461538,1.523077 -3.461538,3.4615385 v 5.1230775 38.76923 39.184616 c 0,1.938462 1.523076,3.461538 3.461538,3.461538 1.938462,0 3.461539,-1.523076 3.461539,-3.461538 V 56.182399 l 4.015384,-0.83077 c 6.923077,-1.384615 13.984616,-0.830769 20.492309,1.661539 l 0.276922,0.138462 c 4.984615,1.799999 10.246154,2.769231 15.507693,2.769231 3.6,0 7.338461,-0.415385 10.938461,-1.384616 l 7.2,-1.8 c 1.523077,-0.415384 2.630769,-1.8 2.630769,-3.323077 v -38.76923 c -0.138461,-1.107693 -0.692307,-2.076924 -1.523076,-2.769231 z" /></svg>