<svg height="300px" width="300px" fill="#000000" xmlns="http://www.w3.org/2000/svg" xmlns:xlink="http://www.w3.org/1999/xlink" version="1.1" x="0px" y="0px" viewBox="0 174.3 841.9 841.9" enable-background="new 0 174.3 841.9 841.9" xml:space="preserve"><path d="M0,771.6c6.1,0,216.1,0,216.1,0l-88.5,244.6H0V771.6z"/><path d="M841.9,771.6c-6.1,0-216.1,0-216.1,0l88.5,244.6h127.6V771.6z"/><circle cx="516.1" cy="386.9" r="34.8"/><path d="M662,444.8c-3.3-7.2-11.7-10.5-19.2-8l-64.3,20.6l-52.9-6c-10.5-1.4-13.3-3.3-22.8-8.2l-26.5-13.6  c-8.2-4.2-11.7-5.9-18.2-12.5L425,381.1l-27.8-63.4c-3-7.3-11-11.6-18.6-9.5c-9.1,2.5-13.7,12.4-10.3,20.8l25.2,61.6  c3,7.6,9.5,15.7,14.3,20l36.9,40.6L392,553.8l0.1,0.1l-36.3,69.8l-75.5,45.4c-9.1,5.5-15.7,15.7-8.8,27c6.4,10.5,18.6,11,27.8,5.5  l80.6-48.5c3.5-2.1,6-5.4,7.8-8.6l45.4-67.9l86.5,40l36.2,84.1c3.9,9,13.9,13.8,23.1,10.9c10.7-3.4,15.9-15.3,11.6-25.4l-38.7-89.8  c-1.9-4.9-6-9.4-11.5-11.7l-68-31.5l36-70.2l63.1,6.3c4.4,0.7,11.9-0.3,15.8-1.7l65.5-21.4C661.5,463.3,666,453.4,662,444.8z"/></svg>