<svg width='200' height='200' fill="#000000" xmlns="http://www.w3.org/2000/svg" xmlns:xlink="http://www.w3.org/1999/xlink" version="1.1" x="0px" y="0px" viewBox="0 0 100 100" enable-background="new 0 0 100 100" xml:space="preserve"><path fill="#000000" d="M50,5C25.147,5,5,25.147,5,50s20.147,45,45,45s45-20.147,45-45S74.853,5,50,5z M30.312,68.281  c-2.33,0-4.219-1.889-4.219-4.219s1.889-4.219,4.219-4.219s4.219,1.889,4.219,4.219S32.642,68.281,30.312,68.281z M30.312,54.219  c-2.33,0-4.219-1.889-4.219-4.219s1.889-4.219,4.219-4.219S34.531,47.67,34.531,50S32.642,54.219,30.312,54.219z M30.312,40.156  c-2.33,0-4.219-1.889-4.219-4.219s1.889-4.219,4.219-4.219s4.219,1.889,4.219,4.219S32.642,40.156,30.312,40.156z M69.688,68.281  H41.562c-2.33,0-4.219-1.889-4.219-4.219s1.889-4.219,4.219-4.219h28.125c2.33,0,4.219,1.889,4.219,4.219  S72.017,68.281,69.688,68.281z M69.688,54.219H41.562c-2.33,0-4.219-1.889-4.219-4.219s1.889-4.219,4.219-4.219h28.125  c2.33,0,4.219,1.889,4.219,4.219S72.017,54.219,69.688,54.219z M69.688,40.156H41.562c-2.33,0-4.219-1.889-4.219-4.219  s1.889-4.219,4.219-4.219h28.125c2.33,0,4.219,1.889,4.219,4.219S72.017,40.156,69.688,40.156z"/></svg>