<?xml version="1.0" encoding="UTF-8" standalone="no"?>
<svg
   xmlns:dc="http://purl.org/dc/elements/1.1/"
   xmlns:cc="http://creativecommons.org/ns#"
   xmlns:rdf="http://www.w3.org/1999/02/22-rdf-syntax-ns#"
   xmlns:svg="http://www.w3.org/2000/svg"
   xmlns="http://www.w3.org/2000/svg"
   xmlns:sodipodi="http://sodipodi.sourceforge.net/DTD/sodipodi-0.dtd"
   xmlns:inkscape="http://www.inkscape.org/namespaces/inkscape"
   width="200"
   height="200"
   fill="#000000"
   version="1.1"
   x="0px"
   y="0px"
   viewBox="0 0 100 100"
   enable-background="new 0 0 100 100"
   xml:space="preserve"
   id="svg4"
   sodipodi:docname="list_241386.svg"
   inkscape:version="0.92.1 r15371"><metadata
     id="metadata10"><rdf:RDF><cc:Work
         rdf:about=""><dc:format>image/svg+xml</dc:format><dc:type
           rdf:resource="http://purl.org/dc/dcmitype/StillImage" /></cc:Work></rdf:RDF></metadata><defs
     id="defs8" /><sodipodi:namedview
     pagecolor="#ffffff"
     bordercolor="#666666"
     borderopacity="1"
     objecttolerance="10"
     gridtolerance="10"
     guidetolerance="10"
     inkscape:pageopacity="0"
     inkscape:pageshadow="2"
     inkscape:window-width="1920"
     inkscape:window-height="1023"
     id="namedview6"
     showgrid="false"
     inkscape:zoom="1.18"
     inkscape:cx="-88.559322"
     inkscape:cy="100"
     inkscape:window-x="0"
     inkscape:window-y="0"
     inkscape:window-maximized="1"
     inkscape:current-layer="svg4" /><path
     d="m 50.211864,0.33898305 c -27.544238,0 -49.87288095,22.32864295 -49.87288095,49.87288095 0,27.544238 22.32864295,49.872886 49.87288095,49.872886 27.544238,0 49.872886,-22.328648 49.872886,-49.872886 0,-27.544238 -22.328648,-49.87288095 -49.872886,-49.87288095 z M 28.391924,70.472446 c -2.582306,0 -4.675859,-2.093554 -4.675859,-4.675861 0,-2.582307 2.093553,-4.675859 4.675859,-4.675859 2.582308,0 4.67586,2.093552 4.67586,4.675859 0,2.582307 -2.093552,4.675861 -4.67586,4.675861 z m 0,-15.584722 c -2.582306,0 -4.675859,-2.093553 -4.675859,-4.67586 0,-2.582307 2.093553,-4.675859 4.675859,-4.675859 2.582308,0 4.67586,2.093552 4.67586,4.675859 0,2.582307 -2.093552,4.67586 -4.67586,4.67586 z m 0,-15.585829 c -2.582306,0 -4.675859,-2.093554 -4.675859,-4.67586 0,-2.582308 2.093553,-4.675859 4.675859,-4.675859 2.582308,0 4.67586,2.093551 4.67586,4.675859 0,2.582306 -2.093552,4.67586 -4.67586,4.67586 z m 43.639881,31.170551 h -31.17166 c -2.582307,0 -4.67586,-2.093554 -4.67586,-4.675861 0,-2.582307 2.093553,-4.675859 4.67586,-4.675859 h 31.170551 c 2.582306,0 4.67586,2.093552 4.67586,4.675859 0,2.582307 -2.093554,4.675861 -4.674751,4.675861 z m 0,-15.584722 h -31.17166 c -2.582307,0 -4.67586,-2.093553 -4.67586,-4.67586 0,-2.582307 2.093553,-4.675859 4.67586,-4.675859 h 31.170551 c 2.582306,0 4.67586,2.093552 4.67586,4.675859 0,2.582307 -2.093554,4.67586 -4.674751,4.67586 z m 0,-15.585829 h -31.17166 c -2.582307,0 -4.67586,-2.093554 -4.67586,-4.67586 0,-2.582308 2.093553,-4.675859 4.67586,-4.675859 h 31.170551 c 2.582306,0 4.67586,2.093551 4.67586,4.675859 0,2.582306 -2.093554,4.67586 -4.674751,4.67586 z"
     id="path2"
     inkscape:connector-curvature="0"
     style="fill:#000000;stroke-width:1.10828626" /></svg>