<svg height="300px" width="300px" fill="#000000" xmlns="http://www.w3.org/2000/svg" xmlns:xlink="http://www.w3.org/1999/xlink" version="1.1" x="0px" y="0px" viewBox="0 0 75 75" enable-background="new 0 0 75 75" xml:space="preserve"><g><g><path d="M37.5,61.5c-13.2333984,0-24-10.7666016-24-24s10.7666016-24,24-24s24,10.7666016,24,24S50.7333984,61.5,37.5,61.5z     M37.5,15.5c-12.1308594,0-22,9.8691406-22,22s9.8691406,22,22,22s22-9.8691406,22-22S49.6308594,15.5,37.5,15.5z"/></g><g><path d="M37.5,20.4643555c-0.5522461,0-1-0.4477539-1-1V14.5c0-0.5522461,0.4477539-1,1-1s1,0.4477539,1,1v4.9643555    C38.5,20.0166016,38.0522461,20.4643555,37.5,20.4643555z"/></g><g><path d="M50.253418,25.746582c-0.2558594,0-0.5117188-0.0976563-0.7070313-0.2929688    c-0.390625-0.390625-0.390625-1.0234375,0-1.4140625l3.5102539-3.5102539c0.390625-0.390625,1.0234375-0.390625,1.4140625,0    s0.390625,1.0234375,0,1.4140625l-3.5102539,3.5102539C50.7651367,25.6489258,50.5092773,25.746582,50.253418,25.746582z"/></g><g><path d="M60.5,38.5h-4.9643555c-0.5522461,0-1-0.4477539-1-1s0.4477539-1,1-1H60.5c0.5522461,0,1,0.4477539,1,1    S61.0522461,38.5,60.5,38.5z"/></g><g><path d="M19.4643555,38.5H14.5c-0.5522461,0-1-0.4477539-1-1s0.4477539-1,1-1h4.9643555c0.5522461,0,1,0.4477539,1,1    S20.0166016,38.5,19.4643555,38.5z"/></g><g><path d="M24.746582,25.746582c-0.2558594,0-0.5117188-0.0976563-0.7070313-0.2929688l-3.5102539-3.5102539    c-0.390625-0.390625-0.390625-1.0234375,0-1.4140625s1.0234375-0.390625,1.4140625,0l3.5102539,3.5102539    c0.390625,0.390625,0.390625,1.0234375,0,1.4140625C25.2583008,25.6489258,25.0024414,25.746582,24.746582,25.746582z"/></g><g><path d="M37.5,40.5c-1.6542969,0-3-1.3457031-3-3s1.3457031-3,3-3s3,1.3457031,3,3S39.1542969,40.5,37.5,40.5z M37.5,36.5    c-0.5512695,0-1,0.4487305-1,1s0.4487305,1,1,1s1-0.4487305,1-1S38.0512695,36.5,37.5,36.5z"/></g><g><path d="M36.4560547,36.7988281c-0.4013672,0-0.7797852-0.2436523-0.9331055-0.640625l-3.9472656-10.2392578    c-0.1987305-0.515625,0.0581055-1.0942383,0.5732422-1.2929688c0.5161133-0.1967773,1.0942383,0.0581055,1.2929688,0.5732422    l3.9472656,10.2392578c0.1987305,0.515625-0.0581055,1.0942383-0.5732422,1.2929688    C36.6972656,36.7768555,36.5756836,36.7988281,36.4560547,36.7988281z"/></g></g></svg>