<svg width='200' height='200' fill="#000000" xmlns="http://www.w3.org/2000/svg" data-name="Right Button" viewBox="0 0 56 56" x="0px" y="0px"><title>right-button-2</title><path d="M32,220a28,28,0,1,1,28-28A28,28,0,0,1,32,220Zm0-52a24,24,0,1,0,24,24A24,24,0,0,0,32,168Zm13.3,23L26.1,177c-1-.7-2.1-0.3-2.1.9v5.2a1.6,1.6,0,0,0,.7,1l10.9,7.6,0.2,0.3h9.9A1.9,1.9,0,0,0,45.3,191Zm0.5,1H35.9l-0.2.3-10.9,7.6a1.6,1.6,0,0,0-.7,1V206c0,1.3,1.1,1.7,2.1.9l19.2-14A1.9,1.9,0,0,0,45.8,192Z" transform="translate(-4 -164)"/></svg>