<?xml version="1.0" encoding="UTF-8" standalone="no"?>
<svg
   xmlns:dc="http://purl.org/dc/elements/1.1/"
   xmlns:cc="http://creativecommons.org/ns#"
   xmlns:rdf="http://www.w3.org/1999/02/22-rdf-syntax-ns#"
   xmlns:svg="http://www.w3.org/2000/svg"
   xmlns="http://www.w3.org/2000/svg"
   xmlns:sodipodi="http://sodipodi.sourceforge.net/DTD/sodipodi-0.dtd"
   xmlns:inkscape="http://www.inkscape.org/namespaces/inkscape"
   width="200"
   height="200"
   fill="#000000"
   version="1.1"
   x="0px"
   y="0px"
   viewBox="0 0 100 100"
   style="enable-background:new 0 0 100 100;"
   xml:space="preserve"
   id="svg4"
   sodipodi:docname="remove_991614.svg"
   inkscape:export-filename="/home/alexandre/Software/speech-rec/player-react/src/img/remove.png"
   inkscape:export-xdpi="11.52"
   inkscape:export-ydpi="11.52"
   inkscape:version="0.92.1 r15371"><metadata
     id="metadata10"><rdf:RDF><cc:Work
         rdf:about=""><dc:format>image/svg+xml</dc:format><dc:type
           rdf:resource="http://purl.org/dc/dcmitype/StillImage" /></cc:Work></rdf:RDF></metadata><defs
     id="defs8" /><sodipodi:namedview
     pagecolor="#ffffff"
     bordercolor="#666666"
     borderopacity="1"
     objecttolerance="10"
     gridtolerance="10"
     guidetolerance="10"
     inkscape:pageopacity="0"
     inkscape:pageshadow="2"
     inkscape:window-width="1920"
     inkscape:window-height="1023"
     id="namedview6"
     showgrid="false"
     inkscape:zoom="3.337544"
     inkscape:cx="88.375902"
     inkscape:cy="96.810179"
     inkscape:window-x="0"
     inkscape:window-y="0"
     inkscape:window-maximized="1"
     inkscape:current-layer="svg4" /><path
     d="M 71.375226,30.951259 52.25158,50.074905 71.375226,69.198551 69.198551,71.375226 50.074905,52.25158 30.951259,71.375226 28.774584,69.198551 47.89823,50.074905 28.774584,30.951259 30.951259,28.774584 50.074905,47.89823 69.198551,28.774584 Z M 99.82748,50.074905 c 0,27.363916 -22.388659,49.752575 -49.752575,49.752575 -27.363916,0 -49.75257454,-22.388659 -49.75257454,-49.752575 0,-27.363916 22.38865854,-49.75257454 49.75257454,-49.75257454 27.363916,0 49.752575,22.38865854 49.752575,49.75257454 z m -3.109535,0 c 0,-25.653671 -20.989369,-46.6430383 -46.64304,-46.6430383 -25.653671,0 -46.6430383,20.9893673 -46.6430383,46.6430383 0,25.653671 20.9893673,46.64304 46.6430383,46.64304 25.653671,0 46.64304,-20.989369 46.64304,-46.64304 z"
     id="path2"
     inkscape:connector-curvature="0"
     style="stroke-width:1.55476785" /></svg>