<svg height="300px" width="300px" fill="#000000" xmlns:dc="http://purl.org/dc/elements/1.1/" xmlns:cc="http://creativecommons.org/ns#" xmlns:rdf="http://www.w3.org/1999/02/22-rdf-syntax-ns#" xmlns:svg="http://www.w3.org/2000/svg" xmlns="http://www.w3.org/2000/svg" xmlns:sodipodi="http://sodipodi.sourceforge.net/DTD/sodipodi-0.dtd" xmlns:inkscape="http://www.inkscape.org/namespaces/inkscape" version="1.1" x="0px" y="0px" viewBox="0 0 128 128" enable-background="new 0 0 128 128" xml:space="preserve"><path style="" d="M 117.80859 1.90625 C 117.40547 1.86875 116.97461 2.0007813 116.59961 2.3007812 L 106.09961 13 C 105.79961 13.3 105.59922 13.800781 105.69922 14.300781 L 106.40039 19.800781 L 104.80078 21.400391 C 94.100781 11.300391 79.8 5 64 5 C 31.5 5 5 31.5 5 64 C 5 96.5 31.5 123 64 123 C 96.5 123 123 96.5 123 64 C 123 48.3 116.90039 34.1 106.90039 23.5 L 108.5 21.900391 L 114 22.599609 L 114.19922 22.599609 C 114.59922 22.599609 115.00078 22.399219 115.30078 22.199219 L 125.90039 11.599609 C 126.30039 11.199609 126.40078 10.6 126.30078 10 C 126.20078 9.4 125.6 9.0996094 125 9.0996094 L 119.80078 8.5 L 119.19922 3.3007812 C 119.09922 2.7007812 118.79922 2.2 118.19922 2 C 118.07422 1.95 117.94297 1.91875 117.80859 1.90625 z M 116.59961 6.5996094 L 117 10 C 117.1 10.7 117.60078 11.200781 118.30078 11.300781 L 121.59961 11.699219 L 113.69922 19.5 L 109.30078 18.900391 L 108.69922 14.5 L 116.59961 6.5996094 z M 64 8 C 79 8 92.599609 13.9 102.59961 23.5 L 91.199219 34.900391 C 83.999219 28.200391 74.5 24.199219 64 24.199219 C 42 24.199219 24.199219 42 24.199219 64 C 24.199219 86 42 103.80078 64 103.80078 C 86 103.80078 103.80078 85.9 103.80078 64 C 103.80078 53.6 99.799219 44.1 93.199219 37 L 104.69922 25.599609 C 114.19922 35.699609 120 49.2 120 64 C 120 94.9 94.9 120 64 120 C 33.1 120 8 94.9 8 64 C 8 33.1 33.1 8 64 8 z M 64 27.199219 C 73.7 27.199219 82.5 30.9 89 37 L 77.5 48.400391 C 73.9 45.200391 69.1 43.300781 64 43.300781 C 52.6 43.300781 43.300781 52.6 43.300781 64 C 43.300781 75.4 52.6 84.699219 64 84.699219 C 75.4 84.699219 84.699219 75.4 84.699219 64 C 84.699219 58.9 82.799219 54.199609 79.699219 50.599609 L 91.199219 39.199219 C 97.199219 45.799219 100.90039 54.499609 100.90039 64.099609 C 100.90039 84.399609 84.399609 100.90039 64.099609 100.90039 C 43.799609 100.90039 27.300781 84.399609 27.300781 64.099609 C 27.300781 43.799609 43.7 27.199219 64 27.199219 z M 64 46.300781 C 68.4 46.300781 72.300391 47.9 75.400391 50.5 L 65.599609 60.300781 C 65.099609 60.100781 64.6 60 64 60 C 61.8 60 60 61.8 60 64 C 60 66.2 61.8 68 64 68 C 66.2 68 68 66.2 68 64 C 68 63.5 67.899219 62.9 67.699219 62.5 L 77.5 52.699219 C 80.1 55.799219 81.599609 59.7 81.599609 64 C 81.599609 73.7 73.700391 81.699219 63.900391 81.699219 C 54.100391 81.699219 46.300781 73.7 46.300781 64 C 46.300781 54.3 54.3 46.300781 64 46.300781 z " fill="#000000"/></svg>