<svg fill="#000000" xmlns="http://www.w3.org/2000/svg" xmlns:xlink="http://www.w3.org/1999/xlink" version="1.1" x="0px" y="0px" viewBox="0 0 100 100" enable-background="new 0 0 100 100" xml:space="preserve"><g display="none"><rect x="-878.378" y="-174.877" display="inline" fill="#000000" stroke="#000000" stroke-width="4" stroke-miterlimit="10" width="1243.174" height="368.982"/></g><g><path d="M59.343,50.808c2.092-2.317,3.245-5.312,3.245-8.431c0-6.944-5.65-12.594-12.594-12.594S37.4,35.433,37.4,42.378   c0,3.118,1.153,6.112,3.248,8.432c2.384,2.637,5.791,4.15,9.346,4.15C53.55,54.96,56.958,53.447,59.343,50.808z"/><g><path fill="none" d="M49.994,9.63C27.737,9.63,9.63,27.742,9.63,50.006c0,12.373,5.576,23.853,15.107,31.486V68.735    c0-6.883,4.308-12.882,10.576-15.195l1.04,1.15c3.481,3.85,8.453,6.058,13.641,6.058c5.189,0,10.161-2.208,13.642-6.058l1.04-1.15    c6.268,2.313,10.576,8.312,10.576,15.195v12.762C84.79,73.876,90.37,62.393,90.37,50.006C90.37,27.742,72.257,9.63,49.994,9.63z"/><path d="M49.994,5C25.185,5,5,25.189,5,50.006c0,9.067,2.766,18.039,7.92,25.503c2.221,3.216,4.977,6.017,7.972,8.515    c1.515,1.263,3.09,2.452,4.694,3.6c2.643,1.891,5.329,3.246,8.392,4.418c1.675,0.641,3.389,1.181,5.129,1.617    C42.664,94.55,46.328,95,49.994,95c3.58,0,7.147-0.494,10.613-1.379c1.754-0.448,3.482-0.994,5.181-1.62    c0.879-0.324,1.751-0.67,2.614-1.034c2.021-0.854,3.937-1.835,5.79-3.026c0,0,1.061-0.678,1.061-0.678v-0.047    C87.633,78.823,95,65.02,95,50.006C95,25.189,74.811,5,49.994,5z M75.253,81.497V68.735c0-6.883-4.308-12.882-10.576-15.195    l-1.04,1.15c-3.481,3.85-8.453,6.058-13.642,6.058c-5.188,0-10.16-2.208-13.641-6.058l-1.04-1.15    c-6.268,2.313-10.576,8.312-10.576,15.195v12.756C15.207,73.858,9.63,62.379,9.63,50.006C9.63,27.742,27.737,9.63,49.994,9.63    c22.263,0,40.375,18.112,40.375,40.375C90.37,62.393,84.79,73.876,75.253,81.497z"/></g></g></svg>