<svg height="500" width="1000" xmlns="http://www.w3.org/2000/svg"><path d="m250 0h500v500h-500z" fill="#fff"/><g stroke="none" fill="#f00"><path d="m499.99228 46.875016-34.11312 63.625294c-3.87086 6.91501-10.80627 6.27363-17.74169 2.41138l-24.69699-12.78858 18.40705 97.72711c3.87086 17.85419-8.54859 17.85419-14.67765 10.13435l-43.10105-48.25099-6.99738 24.503c-.80692 3.21777-4.35481 6.59744-9.67748 5.79261l-54.50177-11.45912 14.31524 52.04475c3.06451 11.58054 5.4549 16.37528-3.09375 19.42959l-19.42619 9.13025 93.82127 76.20838c3.7135 2.88151 5.58971 8.067 4.26768 12.7621l-8.21136 26.94707c32.30405-3.72371 61.24898-9.32594 93.56939-12.77619 2.85323-.30459 7.62988 4.40408 7.61029 7.71058l-4.28024 98.72346h15.70639l-2.47237-98.51174c-.0197-3.3065 4.31372-8.22689 7.16695-7.9223 32.32041 3.45026 61.26538 9.05248 93.56942 12.77619l-8.21134-26.94707c-1.32203-4.6951.55417-9.88059 4.26767-12.7621l93.82125-76.20838-19.42617-9.13025c-8.54867-3.05431-6.15828-7.84905-3.09377-19.42959l14.31527-52.04475-54.5018 11.45912c-5.32267.80483-8.87056-2.57484-9.6775-5.79261l-6.99737-24.503-43.10103 48.25099c-6.12908 7.71984-18.54854 7.71984-14.67768-10.13435l18.40702-97.72711-24.69694 12.78858c-6.93559 3.86225-13.87083 4.50363-17.7417-2.41138"/><path d="m0 0h250v500h-250z"/><path d="m750 0h250v500h-250z"/></g></svg>